#N canvas 662 127 1226 1010 10;
#N canvas 0 22 450 278 (subpatch) 0;
#X array array1 100 float 3;
#A 0 0 0 0 0 0 0 0 0 0 0 0 0 0 0 0 0 0 0 0 0 0 0 0 0 0 0 0 0 0 0 0
0 0 0 0 0 0 0 0 0 0 0 0 0 0 0 0 0 0 0 0 0 0 0 0 0 0 0 0 0 0 0 0 0 0
0 0 0 0 0 0 0 0 0 0 0 0 0 0 0 0 0 0 0 0 0 0 0 0 0 0 0 0 0 0 0 0 0 0
0;
#X coords 0 1 99 -1 200 140 1;
#X restore 593 166 graph;
#X obj 428 222 tabwrite~ array1;
#X obj 521 139 metro 100;
#X obj 521 82 bng 15 250 50 0 empty empty empty 17 7 0 10 -262144 -1
-1;
#X obj 428 170 *~ 10;
#X obj 31 570 vsl 15 128 0 127 0 0 empty empty empty 0 -8 0 8 -262144
-1 -1 0 1;
#X obj 84 571 vsl 15 128 0 127 0 0 empty empty empty 0 -8 0 8 -262144
-1 -1 0 1;
#X obj 135 570 vsl 15 128 0 127 0 0 empty empty empty 0 -8 0 8 -262144
-1 -1 0 1;
#X obj 184 571 vsl 15 128 0 127 0 0 empty empty empty 0 -8 0 8 -262144
-1 -1 0 1;
#X obj 239 570 vsl 15 128 0 127 0 0 empty empty empty 0 -8 0 8 -262144
-1 -1 0 1;
#X obj 294 572 vsl 15 128 0 127 0 0 empty empty empty 0 -8 0 8 -262144
-1 -1 0 1;
#X obj 347 575 vsl 15 128 0 127 0 0 empty empty empty 0 -8 0 8 -262144
-1 -1 0 1;
#X msg 31 725 0 \$1;
#X msg 84 725 1 \$1;
#X msg 135 725 2 \$1;
#X msg 184 725 3 \$1;
#X msg 239 725 4 \$1;
#X msg 294 725 5 \$1;
#X msg 347 724 6 \$1;
#X text 19 529 force;
#X text 73 542 force;
#X text 119 532 force;
#X text 166 549 force;
#X text 245 543 K;
#X text 297 542 D;
#X text 346 543 D2;
#X obj 638 580 gemhead;
#X obj 638 606 world_light;
#X msg 491 550 lighting 1 \, create \, 1;
#X msg 517 576 0 \, destroy;
#X obj 491 602 gemwin 40;
#X text 374 543 (damping);
#X obj 240 790 output~;
#N canvas 96 22 1257 756 cord 0;
#N canvas 306 123 345 326 mass 0;
#X obj 65 20 inlet;
#X obj 65 80 outlet;
#X obj 124 135 gemhead;
#X obj 125 82 unpack s f f;
#X obj 124 166 translateXYZ 0 0 0;
#X obj 170 108 / 100;
#X obj 216 109 / 100;
#X obj 124 194 sphere 0.1;
#X obj 131 17 r \$1-on;
#X obj 65 52 mass2D \$0-mass 10 -260;
#X connect 0 0 9 0;
#X connect 2 0 4 0;
#X connect 3 1 5 0;
#X connect 3 2 6 0;
#X connect 4 0 7 0;
#X connect 5 0 4 1;
#X connect 6 0 4 2;
#X connect 8 0 2 0;
#X connect 9 0 1 0;
#X connect 9 0 3 0;
#X restore 153 387 pd mass;
#X msg 721 211 setK \$1;
#X obj 721 243 s link;
#X obj 721 159 + 1;
#X msg 805 211 setD \$1;
#X msg 890 211 setD2 \$1;
#N canvas 306 123 419 313 mass 0;
#X obj 24 99 outlet;
#X obj 145 98 gemhead;
#X obj 137 134 unpack s f f;
#X obj 143 190 translateXYZ 0 0 0;
#X obj 185 160 / 100;
#X obj 228 161 / 100;
#X obj 144 224 sphere 0.1;
#X msg 25 42 reset;
#X obj 152 26 r \$1-on;
#X obj 28 71 mass2D foo 10 -300 0;
#X connect 1 0 3 0;
#X connect 2 1 4 0;
#X connect 2 2 5 0;
#X connect 3 0 6 0;
#X connect 4 0 3 1;
#X connect 5 0 3 2;
#X connect 7 0 9 0;
#X connect 8 0 1 0;
#X connect 9 0 0 0;
#X connect 9 0 2 0;
#X restore 17 360 pd mass;
#N canvas 306 123 309 290 mass 0;
#X obj 24 23 inlet;
#X obj 24 83 outlet;
#X obj 83 138 gemhead;
#X obj 84 85 unpack s f f;
#X obj 83 169 translateXYZ 0 0 0;
#X obj 129 111 / 100;
#X obj 175 112 / 100;
#X obj 83 197 sphere 0.1;
#X obj 131 17 r \$1-on;
#X obj 25 55 mass2D \$0-mass 10 -220;
#X connect 0 0 9 0;
#X connect 2 0 4 0;
#X connect 3 1 5 0;
#X connect 3 2 6 0;
#X connect 4 0 7 0;
#X connect 5 0 4 1;
#X connect 6 0 4 2;
#X connect 8 0 2 0;
#X connect 9 0 1 0;
#X connect 9 0 3 0;
#X restore 298 393 pd mass;
#X obj 17 386 link2D link 30 1 1;
#X obj 168 349 link2D link 30 1 1;
#N canvas 306 123 311 292 mass 0;
#X obj 24 23 inlet;
#X obj 24 83 outlet;
#X obj 83 138 gemhead;
#X obj 84 85 unpack s f f;
#X obj 83 169 translateXYZ 0 0 0;
#X obj 129 111 / 100;
#X obj 175 112 / 100;
#X obj 83 197 sphere 0.1;
#X obj 131 17 r \$1-on;
#X obj 24 55 mass2D \$0-mass 10 -180;
#X connect 0 0 9 0;
#X connect 2 0 4 0;
#X connect 3 1 5 0;
#X connect 3 2 6 0;
#X connect 4 0 7 0;
#X connect 5 0 4 1;
#X connect 6 0 4 2;
#X connect 8 0 2 0;
#X connect 9 0 1 0;
#X connect 9 0 3 0;
#X restore 442 387 pd mass;
#N canvas 306 123 299 280 mass 0;
#X obj 24 23 inlet;
#X obj 24 83 outlet;
#X obj 83 138 gemhead;
#X obj 84 85 unpack s f f;
#X obj 83 169 translateXYZ 0 0 0;
#X obj 129 111 / 100;
#X obj 175 112 / 100;
#X obj 83 198 sphere 0.1;
#X obj 131 17 r \$1-on;
#X obj 24 55 mass2D \$0-mass 10 -140;
#X connect 0 0 9 0;
#X connect 2 0 4 0;
#X connect 3 1 5 0;
#X connect 3 2 6 0;
#X connect 4 0 7 0;
#X connect 5 0 4 1;
#X connect 6 0 4 2;
#X connect 8 0 2 0;
#X connect 9 0 1 0;
#X connect 9 0 3 0;
#X restore 580 390 pd mass;
#X obj 310 350 link2D link 30 1 1;
#X obj 457 349 link2D link 30 1 1;
#N canvas 306 123 299 280 mass 0;
#X obj 24 23 inlet;
#X obj 24 83 outlet;
#X obj 83 138 gemhead;
#X obj 84 85 unpack s f f;
#X obj 83 169 translateXYZ 0 0 0;
#X obj 129 111 / 100;
#X obj 175 112 / 100;
#X obj 83 197 sphere 0.1;
#X obj 129 20 r \$1-on;
#X obj 24 55 mass2D \$0-mass 10 -100;
#X connect 0 0 9 0;
#X connect 2 0 4 0;
#X connect 3 1 5 0;
#X connect 3 2 6 0;
#X connect 4 0 7 0;
#X connect 5 0 4 1;
#X connect 6 0 4 2;
#X connect 8 0 2 0;
#X connect 9 0 1 0;
#X connect 9 0 3 0;
#X restore 729 390 pd mass;
#X obj 606 349 link2D link 30 1 1;
#N canvas 306 123 299 280 mass 0;
#X obj 24 23 inlet;
#X obj 24 83 outlet;
#X obj 83 138 gemhead;
#X obj 84 85 unpack s f f;
#X obj 83 169 translateXYZ 0 0 0;
#X obj 129 111 / 100;
#X obj 175 112 / 100;
#X obj 83 197 sphere 0.1;
#X obj 131 17 r \$1-on;
#X obj 24 55 mass2D \$0-mass 10 -60;
#X connect 0 0 9 0;
#X connect 2 0 4 0;
#X connect 3 1 5 0;
#X connect 3 2 6 0;
#X connect 4 0 7 0;
#X connect 5 0 4 1;
#X connect 6 0 4 2;
#X connect 8 0 2 0;
#X connect 9 0 1 0;
#X connect 9 0 3 0;
#X restore 880 387 pd mass;
#N canvas 306 123 299 280 mass 0;
#X obj 24 23 inlet;
#X obj 24 83 outlet;
#X obj 83 138 gemhead;
#X obj 84 85 unpack s f f;
#X obj 83 169 translateXYZ 0 0 0;
#X obj 129 111 / 100;
#X obj 175 112 / 100;
#X obj 83 197 sphere 0.1;
#X obj 131 17 r \$1-on;
#X obj 24 55 mass2D \$0-mass 10 -20;
#X connect 0 0 9 0;
#X connect 2 0 4 0;
#X connect 3 1 5 0;
#X connect 3 2 6 0;
#X connect 4 0 7 0;
#X connect 5 0 4 1;
#X connect 6 0 4 2;
#X connect 8 0 2 0;
#X connect 9 0 1 0;
#X connect 9 0 3 0;
#X restore 1014 389 pd mass;
#X obj 748 350 link2D link 30 1 1;
#X obj 895 349 link2D link 30 1 1;
#N canvas 306 123 295 276 mass 0;
#X obj 24 23 inlet;
#X obj 24 83 outlet;
#X obj 83 138 gemhead;
#X obj 84 85 unpack s f f;
#X obj 83 169 translateXYZ 0 0 0;
#X obj 129 111 / 100;
#X obj 175 112 / 100;
#X obj 83 197 sphere 0.1;
#X obj 131 17 r \$1-on;
#X obj 24 55 mass2D \$0-mass 10 20;
#X connect 0 0 9 0;
#X connect 2 0 4 0;
#X connect 3 1 5 0;
#X connect 3 2 6 0;
#X connect 4 0 7 0;
#X connect 5 0 4 1;
#X connect 6 0 4 2;
#X connect 8 0 2 0;
#X connect 9 0 1 0;
#X connect 9 0 3 0;
#X restore 1174 386 pd mass;
#N canvas 306 123 299 280 mass 0;
#X obj 24 23 inlet;
#X obj 24 83 outlet;
#X obj 83 138 gemhead;
#X obj 84 85 unpack s f f;
#X obj 83 169 translateXYZ 0 0 0;
#X obj 129 111 / 100;
#X obj 175 112 / 100;
#X obj 83 197 sphere 0.1;
#X obj 131 17 r \$1-on;
#X obj 24 54 mass2D \$0-mass 10 60;
#X connect 0 0 9 0;
#X connect 2 0 4 0;
#X connect 3 1 5 0;
#X connect 3 2 6 0;
#X connect 4 0 7 0;
#X connect 5 0 4 1;
#X connect 6 0 4 2;
#X connect 8 0 2 0;
#X connect 9 0 1 0;
#X connect 9 0 3 0;
#X restore 1309 391 pd mass;
#X obj 1041 349 link2D link 30 1 1;
#X obj 1188 348 link2D link 30 1 1;
#N canvas 306 123 303 284 mass 0;
#X obj 24 23 inlet;
#X obj 24 83 outlet;
#X obj 83 138 gemhead;
#X obj 84 85 unpack s f f;
#X obj 83 169 translateXYZ 0 0 0;
#X obj 129 111 / 100;
#X obj 175 112 / 100;
#X obj 83 197 sphere 0.1;
#X obj 131 17 r \$1-on;
#X obj 24 55 mass2D \$0-mass 10 100;
#X connect 0 0 9 0;
#X connect 2 0 4 0;
#X connect 3 1 5 0;
#X connect 3 2 6 0;
#X connect 4 0 7 0;
#X connect 5 0 4 1;
#X connect 6 0 4 2;
#X connect 8 0 2 0;
#X connect 9 0 1 0;
#X connect 9 0 3 0;
#X restore 1462 386 pd mass;
#N canvas 306 123 295 276 mass 0;
#X obj 24 23 inlet;
#X obj 24 83 outlet;
#X obj 83 138 gemhead;
#X obj 84 85 unpack s f f;
#X obj 83 169 translateXYZ 0 0 0;
#X obj 129 111 / 100;
#X obj 175 112 / 100;
#X obj 83 197 sphere 0.1;
#X obj 131 17 r \$1-on;
#X obj 24 55 mass2D \$0-mass 10 140;
#X connect 0 0 9 0;
#X connect 2 0 4 0;
#X connect 3 1 5 0;
#X connect 3 2 6 0;
#X connect 4 0 7 0;
#X connect 5 0 4 1;
#X connect 6 0 4 2;
#X connect 8 0 2 0;
#X connect 9 0 1 0;
#X connect 9 0 3 0;
#X restore 1600 389 pd mass;
#X obj 1330 349 link2D link 30 1 1;
#X obj 1477 348 link2D link 30 1 1;
#N canvas 306 123 295 276 mass 0;
#X obj 24 23 inlet;
#X obj 24 83 outlet;
#X obj 83 138 gemhead;
#X obj 84 85 unpack s f f;
#X obj 83 169 translateXYZ 0 0 0;
#X obj 129 111 / 100;
#X obj 175 112 / 100;
#X obj 83 221 sphere 0.1;
#X obj 131 17 r \$1-on;
#X obj 83 196 color 1 0 0;
#X obj 24 55 mass2D \$0-mass 10 180;
#X connect 0 0 10 0;
#X connect 2 0 4 0;
#X connect 3 1 5 0;
#X connect 3 2 6 0;
#X connect 4 0 9 0;
#X connect 5 0 4 1;
#X connect 6 0 4 2;
#X connect 8 0 2 0;
#X connect 9 0 7 0;
#X connect 10 0 1 0;
#X connect 10 0 3 0;
#X restore 1749 389 pd mass;
#X obj 1626 348 link2D link 30 1 1;
#N canvas 306 123 303 284 mass 0;
#X obj 24 23 inlet;
#X obj 24 83 outlet;
#X obj 83 138 gemhead;
#X obj 84 85 unpack s f f;
#X obj 83 169 translateXYZ 0 0 0;
#X obj 129 111 / 100;
#X obj 175 112 / 100;
#X obj 83 197 sphere 0.1;
#X obj 131 17 r \$1-on;
#X obj 24 55 mass2D \$0-mass 10 220;
#X connect 0 0 9 0;
#X connect 2 0 4 0;
#X connect 3 1 5 0;
#X connect 3 2 6 0;
#X connect 4 0 7 0;
#X connect 5 0 4 1;
#X connect 6 0 4 2;
#X connect 8 0 2 0;
#X connect 9 0 1 0;
#X connect 9 0 3 0;
#X restore 1898 388 pd mass;
#N canvas 306 123 311 292 mass 0;
#X obj 24 83 outlet;
#X obj 83 138 gemhead;
#X obj 84 85 unpack s f f;
#X obj 83 169 translateXYZ 0 0 0;
#X obj 129 111 / 100;
#X obj 175 112 / 100;
#X obj 83 197 sphere 0.1;
#X msg 26 31 reset;
#X obj 131 17 r \$1-on;
#X obj 24 55 mass2D foo 10 300;
#X connect 1 0 3 0;
#X connect 2 1 4 0;
#X connect 2 2 5 0;
#X connect 3 0 6 0;
#X connect 4 0 3 1;
#X connect 5 0 3 2;
#X connect 7 0 9 0;
#X connect 8 0 1 0;
#X connect 9 0 0 0;
#X connect 9 0 2 0;
#X restore 2187 226 pd mass;
#X obj 1768 349 link2D link 30 1 1;
#X obj 1915 348 link2D link 30 1 1;
#N canvas 170 431 369 381 link 0;
#X obj 87 24 inlet;
#X obj 162 24 inlet;
#X obj 87 55 tLink2D link;
#X obj 46 207 translateXYZ;
#X obj 162 82 unpack s f f;
#X obj 207 112 / 100;
#X obj 253 112 / 100;
#X obj 46 180 gemhead;
#X obj 46 283 sphere 1;
#X obj 46 233 rotateXYZ;
#X obj 46 257 scaleXYZ 0 0.1 0.1;
#X obj 87 84 / 200;
#X obj 48 145 r \$1-on;
#X connect 0 0 2 0;
#X connect 1 0 2 1;
#X connect 2 0 11 0;
#X connect 2 2 9 3;
#X connect 2 3 4 0;
#X connect 3 0 9 0;
#X connect 4 1 5 0;
#X connect 4 2 6 0;
#X connect 5 0 3 1;
#X connect 6 0 3 2;
#X connect 7 0 3 0;
#X connect 9 0 10 0;
#X connect 10 0 8 0;
#X connect 11 0 10 1;
#X connect 12 0 7 0;
#X restore 207 418 pd link;
#N canvas 170 431 363 375 link 0;
#X obj 87 24 inlet;
#X obj 162 24 inlet;
#X obj 87 55 tLink2D link;
#X obj 46 207 translateXYZ;
#X obj 162 82 unpack s f f;
#X obj 207 112 / 100;
#X obj 253 112 / 100;
#X obj 46 180 gemhead;
#X obj 46 283 sphere 1;
#X obj 46 233 rotateXYZ;
#X obj 46 257 scaleXYZ 0 0.1 0.1;
#X obj 87 84 / 200;
#X obj 48 145 r \$1-on;
#X connect 0 0 2 0;
#X connect 1 0 2 1;
#X connect 2 0 11 0;
#X connect 2 2 9 3;
#X connect 2 3 4 0;
#X connect 3 0 9 0;
#X connect 4 1 5 0;
#X connect 4 2 6 0;
#X connect 5 0 3 1;
#X connect 6 0 3 2;
#X connect 7 0 3 0;
#X connect 9 0 10 0;
#X connect 10 0 8 0;
#X connect 11 0 10 1;
#X connect 12 0 7 0;
#X restore 359 426 pd link;
#N canvas 170 431 367 379 link 0;
#X obj 87 24 inlet;
#X obj 162 24 inlet;
#X obj 87 55 tLink2D link;
#X obj 46 207 translateXYZ;
#X obj 162 82 unpack s f f;
#X obj 207 112 / 100;
#X obj 253 112 / 100;
#X obj 46 180 gemhead;
#X obj 46 283 sphere 1;
#X obj 46 233 rotateXYZ;
#X obj 46 257 scaleXYZ 0 0.1 0.1;
#X obj 87 84 / 200;
#X obj 48 145 r \$1-on;
#X connect 0 0 2 0;
#X connect 1 0 2 1;
#X connect 2 0 11 0;
#X connect 2 2 9 3;
#X connect 2 3 4 0;
#X connect 3 0 9 0;
#X connect 4 1 5 0;
#X connect 4 2 6 0;
#X connect 5 0 3 1;
#X connect 6 0 3 2;
#X connect 7 0 3 0;
#X connect 9 0 10 0;
#X connect 10 0 8 0;
#X connect 11 0 10 1;
#X connect 12 0 7 0;
#X restore 508 429 pd link;
#N canvas 170 431 363 375 link 0;
#X obj 87 24 inlet;
#X obj 162 24 inlet;
#X obj 87 55 tLink2D link;
#X obj 46 207 translateXYZ;
#X obj 162 82 unpack s f f;
#X obj 207 112 / 100;
#X obj 253 112 / 100;
#X obj 46 180 gemhead;
#X obj 46 283 sphere 1;
#X obj 46 233 rotateXYZ;
#X obj 46 257 scaleXYZ 0 0.1 0.1;
#X obj 87 84 / 200;
#X obj 48 145 r \$1-on;
#X connect 0 0 2 0;
#X connect 1 0 2 1;
#X connect 2 0 11 0;
#X connect 2 2 9 3;
#X connect 2 3 4 0;
#X connect 3 0 9 0;
#X connect 4 1 5 0;
#X connect 4 2 6 0;
#X connect 5 0 3 1;
#X connect 6 0 3 2;
#X connect 7 0 3 0;
#X connect 9 0 10 0;
#X connect 10 0 8 0;
#X connect 11 0 10 1;
#X connect 12 0 7 0;
#X restore 665 429 pd link;
#N canvas 170 431 377 389 link 0;
#X obj 87 24 inlet;
#X obj 162 24 inlet;
#X obj 87 55 tLink2D link;
#X obj 46 207 translateXYZ;
#X obj 162 82 unpack s f f;
#X obj 207 112 / 100;
#X obj 253 112 / 100;
#X obj 46 180 gemhead;
#X obj 46 283 sphere 1;
#X obj 46 233 rotateXYZ;
#X obj 46 257 scaleXYZ 0 0.1 0.1;
#X obj 87 84 / 200;
#X obj 48 145 r \$1-on;
#X connect 0 0 2 0;
#X connect 1 0 2 1;
#X connect 2 0 11 0;
#X connect 2 2 9 3;
#X connect 2 3 4 0;
#X connect 3 0 9 0;
#X connect 4 1 5 0;
#X connect 4 2 6 0;
#X connect 5 0 3 1;
#X connect 6 0 3 2;
#X connect 7 0 3 0;
#X connect 9 0 10 0;
#X connect 10 0 8 0;
#X connect 11 0 10 1;
#X connect 12 0 7 0;
#X restore 65 418 pd link;
#N canvas 170 431 363 375 link 0;
#X obj 87 24 inlet;
#X obj 162 24 inlet;
#X obj 87 55 tLink2D link;
#X obj 46 207 translateXYZ;
#X obj 162 82 unpack s f f;
#X obj 207 112 / 100;
#X obj 253 112 / 100;
#X obj 46 180 gemhead;
#X obj 46 283 sphere 1;
#X obj 46 233 rotateXYZ;
#X obj 46 257 scaleXYZ 0 0.1 0.1;
#X obj 87 84 / 200;
#X obj 52 149 r \$1-on;
#X connect 0 0 2 0;
#X connect 1 0 2 1;
#X connect 2 0 11 0;
#X connect 2 2 9 3;
#X connect 2 3 4 0;
#X connect 3 0 9 0;
#X connect 4 1 5 0;
#X connect 4 2 6 0;
#X connect 5 0 3 1;
#X connect 6 0 3 2;
#X connect 7 0 3 0;
#X connect 9 0 10 0;
#X connect 10 0 8 0;
#X connect 11 0 10 1;
#X connect 12 0 7 0;
#X restore 791 423 pd link;
#N canvas 170 431 363 375 link 0;
#X obj 87 24 inlet;
#X obj 162 24 inlet;
#X obj 87 55 tLink2D link;
#X obj 46 207 translateXYZ;
#X obj 162 82 unpack s f f;
#X obj 207 112 / 100;
#X obj 253 112 / 100;
#X obj 46 180 gemhead;
#X obj 46 283 sphere 1;
#X obj 46 233 rotateXYZ;
#X obj 46 257 scaleXYZ 0 0.1 0.1;
#X obj 87 84 / 200;
#X obj 42 141 r \$1-on;
#X connect 0 0 2 0;
#X connect 1 0 2 1;
#X connect 2 0 11 0;
#X connect 2 2 9 3;
#X connect 2 3 4 0;
#X connect 3 0 9 0;
#X connect 4 1 5 0;
#X connect 4 2 6 0;
#X connect 5 0 3 1;
#X connect 6 0 3 2;
#X connect 7 0 3 0;
#X connect 9 0 10 0;
#X connect 10 0 8 0;
#X connect 11 0 10 1;
#X connect 12 0 7 0;
#X restore 926 429 pd link;
#N canvas 170 431 363 375 link 0;
#X obj 87 24 inlet;
#X obj 162 24 inlet;
#X obj 87 55 tLink2D link;
#X obj 46 207 translateXYZ;
#X obj 162 82 unpack s f f;
#X obj 207 112 / 100;
#X obj 253 112 / 100;
#X obj 46 180 gemhead;
#X obj 46 283 sphere 1;
#X obj 46 233 rotateXYZ;
#X obj 46 257 scaleXYZ 0 0.1 0.1;
#X obj 87 84 / 200;
#X obj 48 145 r \$1-on;
#X connect 0 0 2 0;
#X connect 1 0 2 1;
#X connect 2 0 11 0;
#X connect 2 2 9 3;
#X connect 2 3 4 0;
#X connect 3 0 9 0;
#X connect 4 1 5 0;
#X connect 4 2 6 0;
#X connect 5 0 3 1;
#X connect 6 0 3 2;
#X connect 7 0 3 0;
#X connect 9 0 10 0;
#X connect 10 0 8 0;
#X connect 11 0 10 1;
#X connect 12 0 7 0;
#X restore 1068 419 pd link;
#N canvas 170 431 367 379 link 0;
#X obj 87 24 inlet;
#X obj 162 24 inlet;
#X obj 87 55 tLink2D link;
#X obj 46 207 translateXYZ;
#X obj 162 82 unpack s f f;
#X obj 207 112 / 100;
#X obj 253 112 / 100;
#X obj 46 180 gemhead;
#X obj 46 283 sphere 1;
#X obj 46 233 rotateXYZ;
#X obj 46 257 scaleXYZ 0 0.1 0.1;
#X obj 87 84 / 200;
#X obj 48 145 r \$1-on;
#X connect 0 0 2 0;
#X connect 1 0 2 1;
#X connect 2 0 11 0;
#X connect 2 2 9 3;
#X connect 2 3 4 0;
#X connect 3 0 9 0;
#X connect 4 1 5 0;
#X connect 4 2 6 0;
#X connect 5 0 3 1;
#X connect 6 0 3 2;
#X connect 7 0 3 0;
#X connect 9 0 10 0;
#X connect 10 0 8 0;
#X connect 11 0 10 1;
#X connect 12 0 7 0;
#X restore 1239 421 pd link;
#N canvas 170 431 363 375 link 0;
#X obj 87 24 inlet;
#X obj 162 24 inlet;
#X obj 87 55 tLink2D link;
#X obj 46 207 translateXYZ;
#X obj 162 82 unpack s f f;
#X obj 207 112 / 100;
#X obj 253 112 / 100;
#X obj 46 180 gemhead;
#X obj 46 283 sphere 1;
#X obj 46 233 rotateXYZ;
#X obj 46 257 scaleXYZ 0 0.1 0.1;
#X obj 87 84 / 200;
#X obj 48 145 r \$1-on;
#X connect 0 0 2 0;
#X connect 1 0 2 1;
#X connect 2 0 11 0;
#X connect 2 2 9 3;
#X connect 2 3 4 0;
#X connect 3 0 9 0;
#X connect 4 1 5 0;
#X connect 4 2 6 0;
#X connect 5 0 3 1;
#X connect 6 0 3 2;
#X connect 7 0 3 0;
#X connect 9 0 10 0;
#X connect 10 0 8 0;
#X connect 11 0 10 1;
#X connect 12 0 7 0;
#X restore 1392 421 pd link;
#N canvas 170 431 363 375 link 0;
#X obj 87 24 inlet;
#X obj 162 24 inlet;
#X obj 87 55 tLink2D link;
#X obj 46 207 translateXYZ;
#X obj 162 82 unpack s f f;
#X obj 207 112 / 100;
#X obj 253 112 / 100;
#X obj 46 180 gemhead;
#X obj 46 283 sphere 1;
#X obj 46 233 rotateXYZ;
#X obj 46 257 scaleXYZ 0 0.1 0.1;
#X obj 87 84 / 200;
#X obj 48 145 r \$1-on;
#X connect 0 0 2 0;
#X connect 1 0 2 1;
#X connect 2 0 11 0;
#X connect 2 2 9 3;
#X connect 2 3 4 0;
#X connect 3 0 9 0;
#X connect 4 1 5 0;
#X connect 4 2 6 0;
#X connect 5 0 3 1;
#X connect 6 0 3 2;
#X connect 7 0 3 0;
#X connect 9 0 10 0;
#X connect 10 0 8 0;
#X connect 11 0 10 1;
#X connect 12 0 7 0;
#X restore 1529 423 pd link;
#N canvas 170 431 363 375 link 0;
#X obj 87 24 inlet;
#X obj 162 24 inlet;
#X obj 87 55 tLink2D link;
#X obj 46 207 translateXYZ;
#X obj 162 82 unpack s f f;
#X obj 207 112 / 100;
#X obj 253 112 / 100;
#X obj 46 180 gemhead;
#X obj 46 283 sphere 1;
#X obj 46 233 rotateXYZ;
#X obj 46 257 scaleXYZ 0 0.1 0.1;
#X obj 87 84 / 200;
#X obj 48 145 r \$1-on;
#X connect 0 0 2 0;
#X connect 1 0 2 1;
#X connect 2 0 11 0;
#X connect 2 2 9 3;
#X connect 2 3 4 0;
#X connect 3 0 9 0;
#X connect 4 1 5 0;
#X connect 4 2 6 0;
#X connect 5 0 3 1;
#X connect 6 0 3 2;
#X connect 7 0 3 0;
#X connect 9 0 10 0;
#X connect 10 0 8 0;
#X connect 11 0 10 1;
#X connect 12 0 7 0;
#X restore 1691 424 pd link;
#N canvas 170 431 363 375 link 0;
#X obj 87 24 inlet;
#X obj 162 24 inlet;
#X obj 87 55 tLink2D link;
#X obj 46 207 translateXYZ;
#X obj 162 82 unpack s f f;
#X obj 207 112 / 100;
#X obj 253 112 / 100;
#X obj 46 180 gemhead;
#X obj 46 283 sphere 1;
#X obj 46 233 rotateXYZ;
#X obj 46 257 scaleXYZ 0 0.1 0.1;
#X obj 87 84 / 200;
#X obj 48 145 r \$1-on;
#X connect 0 0 2 0;
#X connect 1 0 2 1;
#X connect 2 0 11 0;
#X connect 2 2 9 3;
#X connect 2 3 4 0;
#X connect 3 0 9 0;
#X connect 4 1 5 0;
#X connect 4 2 6 0;
#X connect 5 0 3 1;
#X connect 6 0 3 2;
#X connect 7 0 3 0;
#X connect 9 0 10 0;
#X connect 10 0 8 0;
#X connect 11 0 10 1;
#X connect 12 0 7 0;
#X restore 1828 426 pd link;
#N canvas 170 431 363 375 link 0;
#X obj 87 24 inlet;
#X obj 162 24 inlet;
#X obj 87 55 tLink2D link;
#X obj 46 207 translateXYZ;
#X obj 162 82 unpack s f f;
#X obj 207 112 / 100;
#X obj 253 112 / 100;
#X obj 46 180 gemhead;
#X obj 46 283 sphere 1;
#X obj 46 233 rotateXYZ;
#X obj 46 257 scaleXYZ 0 0.1 0.1;
#X obj 87 84 / 200;
#X obj 24 13 r \$1-on;
#X connect 0 0 2 0;
#X connect 1 0 2 1;
#X connect 2 0 11 0;
#X connect 2 2 9 3;
#X connect 2 3 4 0;
#X connect 3 0 9 0;
#X connect 4 1 5 0;
#X connect 4 2 6 0;
#X connect 5 0 3 1;
#X connect 6 0 3 2;
#X connect 7 0 3 0;
#X connect 9 0 10 0;
#X connect 10 0 8 0;
#X connect 11 0 10 1;
#X connect 12 0 7 0;
#X restore 1935 427 pd link;
#X obj 519 74 route 0 1 2 3 4 5 6 7;
#X obj 159 135 -;
#X obj 184 102 t f f;
#X obj 295 135 -;
#X obj 320 102 t f f;
#X obj 435 135 -;
#X obj 460 106 t f f;
#X msg 159 243 force2D 0 \$1;
#X msg 295 243 force2D 0 \$1;
#X msg 435 242 force2D 0 \$1;
#X obj 159 160 min 5;
#X obj 159 187 max -5;
#X obj 570 134 -;
#X obj 595 105 t f f;
#X msg 570 242 force2D 0 \$1;
#X obj 295 160 min 5;
#X obj 435 161 min 5;
#X obj 570 159 min 5;
#X obj 570 187 max -5;
#X obj 435 188 max -5;
#X obj 295 187 max -5;
#X obj 721 185 / 30;
#X obj 159 215 * 3;
#X obj 295 216 * 3;
#X obj 435 215 * 3;
#X obj 570 215 * 3;
#X obj 810 183 / 60;
#X obj 889 182 / 60;
#N canvas 306 123 307 288 mass 0;
#X obj 24 23 inlet;
#X obj 24 83 outlet;
#X obj 83 138 gemhead;
#X obj 84 85 unpack s f f;
#X obj 83 169 translateXYZ 0 0 0;
#X obj 129 111 / 100;
#X obj 175 112 / 100;
#X obj 83 197 sphere 0.1;
#X obj 131 17 r \$1-on;
#X obj 24 55 mass2D \$0-mass 10 260;
#X connect 0 0 9 0;
#X connect 2 0 4 0;
#X connect 3 1 5 0;
#X connect 3 2 6 0;
#X connect 4 0 7 0;
#X connect 5 0 4 1;
#X connect 6 0 4 2;
#X connect 8 0 2 0;
#X connect 9 0 1 0;
#X connect 9 0 3 0;
#X restore 2042 392 pd mass;
#X obj 2059 352 link2D link 30 1 1;
#N canvas 170 431 363 375 link 0;
#X obj 87 24 inlet;
#X obj 162 24 inlet;
#X obj 87 55 tLink2D link;
#X obj 46 207 translateXYZ;
#X obj 162 82 unpack s f f;
#X obj 207 112 / 100;
#X obj 253 112 / 100;
#X obj 46 180 gemhead;
#X obj 46 283 sphere 1;
#X obj 46 233 rotateXYZ;
#X obj 46 257 scaleXYZ 0 0.1 0.1;
#X obj 87 84 / 200;
#X obj 24 13 r \$1-on;
#X connect 0 0 2 0;
#X connect 1 0 2 1;
#X connect 2 0 11 0;
#X connect 2 2 9 3;
#X connect 2 3 4 0;
#X connect 3 0 9 0;
#X connect 4 1 5 0;
#X connect 4 2 6 0;
#X connect 5 0 3 1;
#X connect 6 0 3 2;
#X connect 7 0 3 0;
#X connect 9 0 10 0;
#X connect 10 0 8 0;
#X connect 11 0 10 1;
#X connect 12 0 7 0;
#X restore 2079 431 pd link;
#X obj 519 43 inlet;
#N canvas 0 22 738 484 init 0;
#X obj 12 357 s link;
#X msg 90 129 reset;
#X msg 12 129 resetF;
#X obj 12 156 s link;
#X obj 90 156 s \$0-mass;
#X obj 57 333 s \$0-mass;
#X obj 26 67 s \$0-mass;
#X msg 26 39 setXmin -350 \, setXmax 350 \, setYmin -350 \, setYmax
350;
#X obj 11 242 s \$0-mass;
#X msg 11 214 setM 5;
#X obj 12 102 t b b;
#X obj 12 307 t b b;
#X obj 12 12 loadbang;
#X obj 12 280 gemhead;
#X obj 11 186 loadbang;
#X connect 1 0 4 0;
#X connect 2 0 3 0;
#X connect 7 0 6 0;
#X connect 9 0 8 0;
#X connect 10 0 2 0;
#X connect 10 1 1 0;
#X connect 11 0 0 0;
#X connect 11 1 5 0;
#X connect 12 0 7 0;
#X connect 12 0 10 0;
#X connect 13 0 11 0;
#X connect 14 0 9 0;
#X restore 29 25 pd init;
#N canvas 0 22 1262 941 table_read 0;
#X obj 67 42 r freqwf;
#X obj 66 127 +~ 3;
#X obj 73 194 tabread4~ cordewf1a;
#X obj 265 197 tabread4~ cordewf1b;
#X obj 471 202 tabread4~ cordewf2a;
#X obj 676 202 tabread4~ cordewf2b;
#X obj 360 454 r \$0-switch1;
#X obj 147 638 *~;
#X obj 360 600 line~;
#X obj 336 632 *~;
#X obj 173 605 line~;
#X obj 609 450 r \$0-switch1;
#X obj 545 640 *~;
#X obj 781 614 line~;
#X obj 751 634 *~;
#X obj 574 619 line~;
#X obj 360 479 sel 1 0;
#X obj 608 475 sel 1 0;
#X obj 67 102 *~ 15;
#X obj 149 351 tabread4~ cordewf1a;
#X obj 341 354 tabread4~ cordewf1b;
#X obj 547 359 tabread4~ cordewf2a;
#X obj 752 359 tabread4~ cordewf2b;
#X obj 151 224 r freqwf;
#X obj 150 310 +~ 3;
#X obj 151 284 *~ 15;
#X obj 67 73 phasor~ 200;
#X obj 151 258 phasor~ 212;
#X msg 173 550 0 10;
#X msg 360 547 0 10;
#X msg 574 566 0 10;
#X msg 781 565 0 10;
#X msg 190 578 0.001 10;
#X msg 392 573 0.001 10;
#X msg 595 592 0.001 10;
#X msg 800 589 0.001 10;
#X obj 635 682 outlet~;
#X obj 207 685 outlet~;
#X connect 0 0 26 0;
#X connect 1 0 2 0;
#X connect 1 0 3 0;
#X connect 1 0 4 0;
#X connect 1 0 5 0;
#X connect 2 0 7 0;
#X connect 3 0 9 0;
#X connect 4 0 12 0;
#X connect 5 0 14 0;
#X connect 6 0 16 0;
#X connect 7 0 37 0;
#X connect 8 0 9 1;
#X connect 9 0 37 0;
#X connect 10 0 7 1;
#X connect 11 0 17 0;
#X connect 12 0 36 0;
#X connect 13 0 14 1;
#X connect 14 0 36 0;
#X connect 15 0 12 1;
#X connect 16 0 29 0;
#X connect 16 0 32 0;
#X connect 16 1 33 0;
#X connect 16 1 28 0;
#X connect 17 0 31 0;
#X connect 17 0 34 0;
#X connect 17 1 35 0;
#X connect 17 1 30 0;
#X connect 18 0 1 0;
#X connect 19 0 7 0;
#X connect 20 0 9 0;
#X connect 21 0 12 0;
#X connect 22 0 14 0;
#X connect 23 0 27 0;
#X connect 24 0 19 0;
#X connect 24 0 20 0;
#X connect 24 0 21 0;
#X connect 24 0 22 0;
#X connect 25 0 24 0;
#X connect 26 0 18 0;
#X connect 27 0 25 0;
#X connect 28 0 10 0;
#X connect 29 0 8 0;
#X connect 30 0 15 0;
#X connect 31 0 13 0;
#X connect 32 0 10 0;
#X connect 33 0 8 0;
#X connect 34 0 15 0;
#X connect 35 0 13 0;
#X restore 154 601 pd table_read;
#N canvas 529 196 1379 756 sound 0;
#X msg 27 516 0;
#X obj 27 424 r \$0-mass;
#X obj 27 477 delay 0;
#X obj 18 51 unpack s f f;
#X obj 99 123 unpack s f f;
#X obj 168 43 unpack s f f;
#X obj 260 121 unpack s f f;
#X obj 341 36 unpack s f f;
#X obj 638 135 unpack s f f;
#X obj 743 38 unpack s f f;
#X obj 452 132 unpack s f f;
#X obj 548 35 unpack s f f;
#X obj 972 34 unpack s f f;
#X obj 854 102 unpack s f f;
#X obj 1060 100 unpack s f f;
#X obj 1169 32 unpack s f f;
#X obj 695 583 pack 0 0 0 0 0 0 0 0 0 0 0 0 0 0 0 0;
#X obj 21 17 inlet;
#X obj 104 15 inlet;
#X obj 168 14 inlet;
#X obj 266 14 inlet;
#X obj 346 8 inlet;
#X obj 460 6 inlet;
#X obj 548 4 inlet;
#X obj 647 4 inlet;
#X obj 742 5 inlet;
#X obj 858 2 inlet;
#X obj 985 5 inlet;
#X obj 1070 -3 inlet;
#X obj 1187 1 inlet;
#X obj 27 450 t b;
#X obj 27 578 pack 0 0 0 0 0 0 0 0 0 0 0 0 0 0 0 0;
#N canvas 0 22 196 289 1sur2 0;
#X obj 19 20 inlet;
#X obj 50 65 f;
#X obj 50 87 + 1;
#X obj 50 110 % 2;
#X obj 19 238 outlet;
#X obj 75 239 outlet;
#X obj 75 216 spigot;
#X obj 19 41 t a b;
#X obj 50 171 * -1;
#X obj 50 192 + 1;
#X obj 19 215 spigot;
#X obj 135 242 outlet;
#X connect 0 0 7 0;
#X connect 1 0 2 0;
#X connect 2 0 3 0;
#X connect 3 0 1 1;
#X connect 3 0 8 0;
#X connect 3 0 6 1;
#X connect 3 0 11 0;
#X connect 6 0 5 0;
#X connect 7 0 10 0;
#X connect 7 0 6 0;
#X connect 7 1 1 0;
#X connect 8 0 9 0;
#X connect 9 0 10 1;
#X connect 10 0 4 0;
#X restore 27 638 pd 1sur2;
#N canvas 0 22 192 285 1sur2 0;
#X obj 19 20 inlet;
#X obj 50 65 f;
#X obj 50 87 + 1;
#X obj 50 110 % 2;
#X obj 19 238 outlet;
#X obj 75 239 outlet;
#X obj 75 216 spigot;
#X obj 19 41 t a b;
#X obj 50 171 * -1;
#X obj 50 192 + 1;
#X obj 19 215 spigot;
#X obj 135 242 outlet;
#X connect 0 0 7 0;
#X connect 1 0 2 0;
#X connect 2 0 3 0;
#X connect 3 0 1 1;
#X connect 3 0 8 0;
#X connect 3 0 6 1;
#X connect 3 0 11 0;
#X connect 6 0 5 0;
#X connect 7 0 10 0;
#X connect 7 0 6 0;
#X connect 7 1 1 0;
#X connect 8 0 9 0;
#X connect 9 0 10 1;
#X connect 10 0 4 0;
#X restore 695 636 pd 1sur2;
#X obj 102 663 s \$0-switch2;
#X obj 770 660 s \$0-switch1;
#X obj 1278 35 unpack s f f;
#X obj 1296 4 inlet;
#X obj 62 84 + 260;
#X obj 144 148 + 220;
#X obj 213 73 + 180;
#X obj 300 154 + 140;
#X obj 378 73 + 100;
#X obj 484 164 + 60;
#X obj 593 61 + 20;
#X obj 683 170 - 20;
#X obj 776 76 - 60;
#X obj 898 128 - 100;
#X obj 1004 69 - 140;
#X obj 1094 137 - 180;
#X obj 1203 67 - 220;
#X obj 1315 69 - 260;
#X msg 732 690 \; cordewf1a 0 \$14 \$15 \$16 0 \$3 \$4 \$5 \$6 \$7
\$8 \$9 \$10 \$11 \$12 \$13 \$14 \$15 \$16 0 \$3 \$4 \$5 \$6;
#X msg 695 747 \; cordewf1b 0 \$14 \$15 \$16 0 \$3 \$4 \$5 \$6 \$7
\$8 \$9 \$10 \$11 \$12 \$13 \$14 \$15 \$16 0 \$3 \$4 \$5 \$6;
#X msg 64 686 \; cordewf2a 0 \$14 \$15 \$16 0 \$3 \$4 \$5 \$6 \$7 \$8
\$9 \$10 \$11 \$12 \$13 \$14 \$15 \$16 0 \$3 \$4 \$5 \$6;
#X msg 27 740 \; cordewf2b 0 \$14 \$15 \$16 0 \$3 \$4 \$5 \$6 \$7 \$8
\$9 \$10 \$11 \$12 \$13 \$14 \$15 \$16 0 \$3 \$4 \$5 \$6;
#X obj 18 287 table cordewf1a 23;
#X obj 18 311 table cordewf2a 23;
#X obj 18 335 table cordewf1b 23;
#X obj 18 358 table cordewf2b 23;
#X floatatom 1008 104 5 0 0 0 - - -;
#X msg 695 612 0 0 \$3 \$4 \$5 \$6 \$7 \$8 \$9 \$10 \$11 \$12 \$13
\$14 \$15 \$16;
#X msg 27 614 0 0 \$3 \$4 \$5 \$6 \$7 \$8 \$9 \$10 \$11 \$12 \$13 \$14
\$15 \$16;
#X connect 0 0 31 0;
#X connect 0 0 16 0;
#X connect 1 0 30 0;
#X connect 2 0 0 0;
#X connect 3 1 38 0;
#X connect 3 2 16 2;
#X connect 4 1 39 0;
#X connect 4 2 16 3;
#X connect 5 1 40 0;
#X connect 5 2 16 4;
#X connect 6 1 41 0;
#X connect 6 2 16 5;
#X connect 7 1 42 0;
#X connect 7 2 16 6;
#X connect 8 1 45 0;
#X connect 8 2 16 9;
#X connect 9 1 46 0;
#X connect 9 2 16 10;
#X connect 10 1 43 0;
#X connect 10 2 16 7;
#X connect 11 1 44 0;
#X connect 11 2 16 8;
#X connect 12 1 48 0;
#X connect 12 2 16 12;
#X connect 13 1 47 0;
#X connect 13 2 16 11;
#X connect 14 1 49 0;
#X connect 14 2 16 13;
#X connect 15 1 50 0;
#X connect 15 2 16 14;
#X connect 16 0 61 0;
#X connect 17 0 3 0;
#X connect 18 0 4 0;
#X connect 19 0 5 0;
#X connect 20 0 6 0;
#X connect 21 0 7 0;
#X connect 22 0 10 0;
#X connect 23 0 11 0;
#X connect 24 0 8 0;
#X connect 25 0 9 0;
#X connect 26 0 13 0;
#X connect 27 0 12 0;
#X connect 28 0 14 0;
#X connect 29 0 15 0;
#X connect 30 0 2 0;
#X connect 31 0 62 0;
#X connect 32 0 55 0;
#X connect 32 1 54 0;
#X connect 32 2 34 0;
#X connect 33 0 53 0;
#X connect 33 1 52 0;
#X connect 33 2 35 0;
#X connect 36 1 51 0;
#X connect 36 2 16 15;
#X connect 37 0 36 0;
#X connect 38 0 31 2;
#X connect 39 0 31 3;
#X connect 40 0 31 4;
#X connect 41 0 31 5;
#X connect 42 0 31 6;
#X connect 43 0 31 7;
#X connect 44 0 31 8;
#X connect 45 0 31 9;
#X connect 46 0 31 10;
#X connect 47 0 31 11;
#X connect 48 0 31 12;
#X connect 48 0 60 0;
#X connect 49 0 31 13;
#X connect 50 0 31 14;
#X connect 51 0 31 15;
#X connect 61 0 33 0;
#X connect 62 0 32 0;
#X restore 153 559 pd sound ------------------------------------------------
;
#X obj 242 665 outlet~;
#X obj 242 632 hip~ 20;
#X obj 154 665 outlet~;
#X obj 154 633 hip~ 20;
#X connect 0 0 8 1;
#X connect 0 0 9 0;
#X connect 0 0 34 0;
#X connect 0 0 38 1;
#X connect 0 0 82 0;
#X connect 1 0 2 0;
#X connect 3 0 69 0;
#X connect 4 0 2 0;
#X connect 5 0 2 0;
#X connect 6 0 8 0;
#X connect 6 0 38 0;
#X connect 7 0 9 1;
#X connect 7 0 12 0;
#X connect 7 0 34 1;
#X connect 7 0 35 0;
#X connect 7 0 82 1;
#X connect 8 1 0 0;
#X connect 9 0 0 0;
#X connect 9 1 7 0;
#X connect 10 0 12 1;
#X connect 10 0 13 0;
#X connect 10 0 36 0;
#X connect 10 0 35 1;
#X connect 10 0 82 2;
#X connect 11 0 13 1;
#X connect 11 0 15 0;
#X connect 11 0 37 0;
#X connect 11 0 36 1;
#X connect 11 0 82 3;
#X connect 12 0 7 0;
#X connect 12 1 10 0;
#X connect 13 0 10 0;
#X connect 13 1 11 0;
#X connect 14 0 15 1;
#X connect 14 0 18 0;
#X connect 14 0 37 1;
#X connect 14 0 39 0;
#X connect 14 0 82 4;
#X connect 15 0 11 0;
#X connect 15 1 14 0;
#X connect 16 0 18 1;
#X connect 16 0 19 0;
#X connect 16 0 39 1;
#X connect 16 0 40 0;
#X connect 16 0 82 5;
#X connect 17 0 19 1;
#X connect 17 0 22 0;
#X connect 17 0 40 1;
#X connect 17 0 41 0;
#X connect 17 0 82 6;
#X connect 18 0 14 0;
#X connect 18 1 16 0;
#X connect 19 0 16 0;
#X connect 19 1 17 0;
#X connect 20 0 22 1;
#X connect 20 0 23 0;
#X connect 20 0 41 1;
#X connect 20 0 42 0;
#X connect 20 0 82 7;
#X connect 21 0 23 1;
#X connect 21 0 26 0;
#X connect 21 0 42 1;
#X connect 21 0 43 0;
#X connect 21 0 82 8;
#X connect 22 0 17 0;
#X connect 22 1 20 0;
#X connect 23 0 20 0;
#X connect 23 1 21 0;
#X connect 24 0 26 1;
#X connect 24 0 27 0;
#X connect 24 0 43 1;
#X connect 24 0 44 0;
#X connect 24 0 82 9;
#X connect 25 0 27 1;
#X connect 25 0 29 0;
#X connect 25 0 44 1;
#X connect 25 0 45 0;
#X connect 25 0 82 10;
#X connect 26 0 21 0;
#X connect 26 1 24 0;
#X connect 27 0 24 0;
#X connect 27 1 25 0;
#X connect 28 0 29 1;
#X connect 28 0 32 0;
#X connect 28 0 45 1;
#X connect 28 0 46 0;
#X connect 28 0 82 11;
#X connect 29 0 25 0;
#X connect 29 1 28 0;
#X connect 30 0 32 1;
#X connect 30 0 33 0;
#X connect 30 0 46 1;
#X connect 30 0 47 0;
#X connect 30 0 82 12;
#X connect 31 0 78 1;
#X connect 31 0 77 1;
#X connect 32 0 28 0;
#X connect 32 1 30 0;
#X connect 33 0 30 0;
#X connect 33 1 76 0;
#X connect 48 0 50 0;
#X connect 48 1 52 0;
#X connect 48 2 54 0;
#X connect 48 3 61 0;
#X connect 48 4 3 0;
#X connect 48 5 74 0;
#X connect 48 6 75 0;
#X connect 49 0 58 0;
#X connect 50 0 49 1;
#X connect 50 1 49 0;
#X connect 51 0 63 0;
#X connect 52 0 51 1;
#X connect 52 1 51 0;
#X connect 53 0 64 0;
#X connect 54 0 53 1;
#X connect 54 1 53 0;
#X connect 55 0 10 0;
#X connect 56 0 16 0;
#X connect 57 0 21 0;
#X connect 58 0 59 0;
#X connect 59 0 70 0;
#X connect 60 0 65 0;
#X connect 61 0 60 1;
#X connect 61 1 60 0;
#X connect 62 0 28 0;
#X connect 63 0 68 0;
#X connect 64 0 67 0;
#X connect 65 0 66 0;
#X connect 66 0 73 0;
#X connect 67 0 72 0;
#X connect 68 0 71 0;
#X connect 69 0 1 0;
#X connect 70 0 55 0;
#X connect 71 0 56 0;
#X connect 72 0 57 0;
#X connect 73 0 62 0;
#X connect 74 0 4 0;
#X connect 75 0 5 0;
#X connect 76 0 77 0;
#X connect 76 0 78 0;
#X connect 76 0 33 1;
#X connect 76 0 47 1;
#X connect 76 0 82 13;
#X connect 77 0 76 0;
#X connect 79 0 48 0;
#X connect 81 0 86 0;
#X connect 81 1 84 0;
#X connect 84 0 83 0;
#X connect 86 0 85 0;
#X restore 239 760 pd cord;
#X obj 193 273 unpack;
#X floatatom 193 323 0 0 0 0 - - -;
#X floatatom 303 326 0 0 0 0 - - -;
#X obj 214 202 fiddle~ 1024 1 20 3;
#X text 303 348 amplitude;
#X text 313 363 (dB);
#X text 193 345 raw pitch;
#X obj 206 150 adc~ 1 2;
#X obj 309 468 bng 15 250 50 0 empty empty empty 17 7 0 10 -262144
-1 -1;
#X obj 369 470 bng 15 250 50 0 empty empty empty 17 7 0 10 -262144
-1 -1;
#X msg 310 495 0;
#X msg 374 501 127;
#X obj 305 420 > 70;
#X obj 262 421 < 70;
#X floatatom 356 434 5 0 0 0 - - -;
#X obj 408 427 sel 1;
#X obj 237 454 sel 1;
#X floatatom 185 461 5 0 0 0 - - -;
#X connect 2 0 1 0;
#X connect 3 0 2 0;
#X connect 4 0 1 0;
#X connect 5 0 12 0;
#X connect 6 0 13 0;
#X connect 7 0 14 0;
#X connect 8 0 15 0;
#X connect 9 0 16 0;
#X connect 10 0 17 0;
#X connect 11 0 18 0;
#X connect 12 0 33 0;
#X connect 13 0 33 0;
#X connect 14 0 33 0;
#X connect 15 0 33 0;
#X connect 16 0 33 0;
#X connect 17 0 33 0;
#X connect 18 0 33 0;
#X connect 26 0 27 0;
#X connect 28 0 30 0;
#X connect 29 0 30 0;
#X connect 33 0 32 0;
#X connect 33 1 32 1;
#X connect 34 0 35 0;
#X connect 36 0 46 0;
#X connect 36 0 47 0;
#X connect 37 2 34 0;
#X connect 37 3 36 0;
#X connect 41 0 37 0;
#X connect 41 0 4 0;
#X connect 42 0 44 0;
#X connect 43 0 45 0;
#X connect 44 0 9 0;
#X connect 45 0 9 0;
#X connect 46 0 48 0;
#X connect 47 0 50 0;
#X connect 48 0 49 0;
#X connect 49 0 43 0;
#X connect 50 0 42 0;
